<svg xmlns="http://www.w3.org/2000/svg" viewBox="0 0 1200 1200" role="img" aria-labelledby="title desc">
  <title id="title">炭吉刈包餐車品牌視覺案例封面</title>
  <desc id="desc">以黑、米白與炭火橘呈現菜單、關東旗、貼紙與餐盒等餐車品牌應用。</desc>
  <defs>
    <linearGradient id="warm" x1="0" y1="0" x2="1" y2="1">
      <stop offset="0" stop-color="#f2b35f"/>
      <stop offset="1" stop-color="#b94d24"/>
    </linearGradient>
    <filter id="shadow" x="-20%" y="-20%" width="140%" height="140%">
      <feDropShadow dx="0" dy="22" stdDeviation="26" flood-color="#111" flood-opacity="0.18"/>
    </filter>
  </defs>

  <rect width="1200" height="1200" fill="#f5efe4"/>
  <path d="M0 0h1200v150c-180 50-297-27-448 17-156 45-286-36-453 7C190 202 89 192 0 165Z" fill="#111"/>
  <path d="M0 1110c160-42 286 37 430-8 173-54 302 43 468-7 130-39 214 0 302 35v70H0Z" fill="#d76a2c" opacity="0.85"/>

  <g transform="translate(72 56)">
    <rect width="360" height="82" rx="41" fill="#fffaf2"/>
    <circle cx="47" cy="41" r="25" fill="url(#warm)"/>
    <path d="M31 43c7-18 27-22 38-7-4 18-27 25-38 7Z" fill="#fff4da" stroke="#111" stroke-width="3"/>
    <text x="92" y="55" font-family="Noto Sans TC, PingFang TC, Microsoft JhengHei, sans-serif" font-size="40" font-weight="800" fill="#111">炭吉刈包</text>
  </g>

  <text x="72" y="250" font-family="Noto Sans TC, PingFang TC, Microsoft JhengHei, sans-serif" font-size="30" font-weight="700" letter-spacing="5" fill="#9a4a25">CASE STUDY 004</text>
  <text x="72" y="346" font-family="Noto Sans TC, PingFang TC, Microsoft JhengHei, sans-serif" font-size="76" font-weight="850" fill="#181818">餐車品牌視覺</text>
  <text x="72" y="418" font-family="Noto Sans TC, PingFang TC, Microsoft JhengHei, sans-serif" font-size="36" font-weight="600" fill="#694a38">把現場販售資訊整理成清楚、有記憶點的品牌應用</text>

  <g transform="translate(72 490)" filter="url(#shadow)">
    <rect width="1056" height="450" rx="34" fill="#fffdf8" stroke="#d9cdbd" stroke-width="4"/>

    <g transform="translate(28 28)">
      <rect width="470" height="394" rx="24" fill="#181818"/>
      <rect x="34" y="34" width="402" height="72" rx="16" fill="#d9652b"/>
      <text x="64" y="83" font-family="Noto Sans TC, PingFang TC, Microsoft JhengHei, sans-serif" font-size="34" font-weight="850" fill="#fff">炭吉刈包 MENU</text>
      <g fill="#f6e8cf">
        <rect x="36" y="136" width="398" height="52" rx="12"/>
        <rect x="36" y="204" width="398" height="52" rx="12"/>
        <rect x="36" y="272" width="398" height="52" rx="12"/>
      </g>
      <g font-family="Noto Sans TC, PingFang TC, Microsoft JhengHei, sans-serif" font-size="22" font-weight="700" fill="#2b211c">
        <text x="58" y="170">招牌刈包</text><text x="352" y="170">$</text>
        <text x="58" y="238">餐點組合</text><text x="352" y="238">$</text>
        <text x="58" y="306">加購選項</text><text x="352" y="306">$</text>
      </g>
      <text x="38" y="365" font-family="Noto Sans TC, PingFang TC, Microsoft JhengHei, sans-serif" font-size="18" fill="#f3d7b6">菜單資訊・價格層級・現場閱讀</text>
    </g>

    <g transform="translate(536 28)">
      <rect width="214" height="394" rx="18" fill="#f5e9d3" stroke="#111" stroke-width="4"/>
      <rect x="78" y="22" width="58" height="350" rx="10" fill="#d9652b"/>
      <text x="108" y="78" text-anchor="middle" writing-mode="tb" glyph-orientation-vertical="0" font-family="Noto Sans TC, PingFang TC, Microsoft JhengHei, sans-serif" font-size="31" font-weight="850" fill="#fff">炭吉刈包</text>
      <text x="23" y="362" font-family="Noto Sans TC, PingFang TC, Microsoft JhengHei, sans-serif" font-size="17" font-weight="700" fill="#111">關東旗</text>
    </g>

    <g transform="translate(778 28)">
      <rect width="250" height="120" rx="22" fill="#111"/>
      <circle cx="55" cy="60" r="34" fill="#d9652b"/>
      <path d="M35 62c9-24 36-29 51-9-6 25-37 34-51 9Z" fill="#fff1cf"/>
      <text x="104" y="68" font-family="Noto Sans TC, PingFang TC, Microsoft JhengHei, sans-serif" font-size="26" font-weight="850" fill="#fff">品牌貼紙</text>

      <rect y="142" width="250" height="252" rx="22" fill="#e8d7bd"/>
      <path d="M34 215h182v118H34z" fill="#fffaf1" stroke="#111" stroke-width="4"/>
      <path d="M44 215c28-38 144-38 162 0" fill="#d9652b" stroke="#111" stroke-width="4"/>
      <text x="125" y="286" text-anchor="middle" font-family="Noto Sans TC, PingFang TC, Microsoft JhengHei, sans-serif" font-size="23" font-weight="800" fill="#111">餐盒應用</text>
      <text x="125" y="372" text-anchor="middle" font-family="Noto Sans TC, PingFang TC, Microsoft JhengHei, sans-serif" font-size="17" fill="#654a3b">現場販售與印刷延伸</text>
    </g>
  </g>

  <g transform="translate(72 1004)">
    <rect width="1056" height="84" rx="28" fill="#fffaf2"/>
    <text x="34" y="54" font-family="Noto Sans TC, PingFang TC, Microsoft JhengHei, sans-serif" font-size="25" font-weight="750" fill="#2a211d">菜單設計 ・ 關東旗 ・ 貼紙 ・ 餐盒 ・ 品牌文案</text>
  </g>
</svg>
